# xmcd
# 
# Track frame offsets:
#     150
#     23770
#     44682
#     63670
#     78820
#     96687
#     109995
#     122435
#     140282
#     159035
#     175237
#     193632
#     216967
#     237950
#     255605
#     276840
# 
# Disc length: 3935
# 
# Revision: 2
# Processed by: cddbd v1.5.2PL0 Copyright (c) Steve Scherf et al.
# Submitted via: BonkEnc v1.0.5
# 
DISCID=e10f5d10
DTITLE=ハイ・ファイ・セット - ハイ・ファイ・セット
DYEAR=1991
DGENRE=Pop
TTITLE0=DESTINY
TTITLE1=最後の夏休み
TTITLE2=緑の町に舞い降りて
TTITLE3=よりそって二人
TTITLE4=ラブストーリーはこれから
TTITLE5=シーズン・オフのサンタクロース
TTITLE6=キャサリン
TTITLE7=miss you
TTITLE8=ノックダウン
TTITLE9=スクールバンドの女の子
TTITLE10=HAVANA CANDY
TTITLE11=ブロードウェイで朝食を
TTITLE12=流れ星
TTITLE13=スローダンス
TTITLE14=五月になったら
TTITLE15=燃える秋
EXTD=
EXTT0=
EXTT1=
EXTT2=
EXTT3=
EXTT4=
EXTT5=
EXTT6=
EXTT7=
EXTT8=
EXTT9=
EXTT10=
EXTT11=
EXTT12=
EXTT13=
EXTT14=
EXTT15=
PLAYORDER=
